<svg preserveAspectRatio="none" width="100%" height="100%" overflow="visible" style="display: block;" viewBox="0 0 50 50" fill="none" xmlns="http://www.w3.org/2000/svg">
<g id="Frame 201">
<rect width="50" height="50" rx="25" fill="#E8EEFA"/>
<path id="Vector" d="M25 13.6667C26.4049 13.6667 27.7271 13.9323 28.9667 14.4635C30.2062 14.9948 31.2865 15.7267 32.2073 16.6594C33.1281 17.592 33.8542 18.6722 34.3854 19.9C34.9167 21.1278 35.1882 22.45 35.2 23.8667C35.2 24.6104 35.1528 25.3069 35.0583 25.9563C34.9639 26.6056 34.8163 27.2253 34.6156 27.8156C34.4149 28.4059 34.1552 28.9903 33.8365 29.5688C33.5177 30.1472 33.1399 30.7375 32.7031 31.3396C32.3608 31.8118 32.0597 32.2368 31.8 32.6146C31.5403 32.9924 31.3278 33.3701 31.1625 33.7479C30.9972 34.1257 30.8733 34.5389 30.7906 34.9875C30.708 35.4361 30.6667 35.9615 30.6667 36.5635V39.7333C30.6667 40.2056 30.5781 40.6483 30.401 41.0615C30.224 41.4747 29.9819 41.8347 29.675 42.1417C29.3681 42.4486 29.008 42.6906 28.5948 42.8677C28.1816 43.0448 27.7389 43.1333 27.2667 43.1333H22.7333C22.2611 43.1333 21.8184 43.0448 21.4052 42.8677C20.992 42.6906 20.6319 42.4486 20.325 42.1417C20.0181 41.8347 19.776 41.4747 19.599 41.0615C19.4219 40.6483 19.3333 40.2056 19.3333 39.7333V36.5458C19.3333 35.9438 19.292 35.4243 19.2094 34.9875C19.1267 34.5507 19.0028 34.1434 18.8375 33.7656C18.6722 33.3878 18.4597 33.0042 18.2 32.6146C17.9403 32.225 17.6392 31.8 17.2969 31.3396C16.8601 30.7375 16.4882 30.1531 16.1812 29.5865C15.8743 29.0198 15.6146 28.4354 15.4021 27.8333C15.1896 27.2313 15.0361 26.6056 14.9417 25.9563C14.8472 25.3069 14.8 24.6104 14.8 23.8667C14.8 22.4618 15.0656 21.1396 15.5969 19.9C16.1281 18.6604 16.8601 17.5802 17.7927 16.6594C18.7253 15.7385 19.8056 15.0125 21.0333 14.4812C22.2611 13.95 23.5833 13.6785 25 13.6667ZM28.4 39.7333V38.6H21.6V39.7333C21.6 40.0403 21.7122 40.3059 21.9365 40.5302C22.1608 40.7545 22.4264 40.8667 22.7333 40.8667H27.2667C27.5736 40.8667 27.8392 40.7545 28.0635 40.5302C28.2878 40.3059 28.4 40.0403 28.4 39.7333ZM32.9333 23.8667C32.9333 22.7687 32.7267 21.7417 32.3135 20.7854C31.9003 19.8292 31.3337 18.9851 30.6135 18.2531C29.8934 17.5212 29.0552 16.9545 28.099 16.5531C27.1427 16.1517 26.1097 15.9451 25 15.9333C23.9021 15.9333 22.875 16.1399 21.9187 16.5531C20.9625 16.9663 20.1184 17.533 19.3865 18.2531C18.6545 18.9733 18.0878 19.8115 17.6865 20.7677C17.2851 21.724 17.0785 22.7569 17.0667 23.8667C17.0667 24.9174 17.1729 25.8205 17.3854 26.576C17.5979 27.3316 17.8753 28.0045 18.2177 28.5948C18.5601 29.1851 18.9201 29.7399 19.2979 30.2594C19.6757 30.7788 20.0358 31.3219 20.3781 31.8885C20.7205 32.4552 21.0038 33.0927 21.2281 33.801C21.4524 34.5094 21.5764 35.3535 21.6 36.3333H28.4C28.4118 35.3535 28.5299 34.5153 28.7542 33.8188C28.9785 33.1222 29.2618 32.4847 29.6042 31.9063C29.9465 31.3278 30.3066 30.7847 30.6844 30.2771C31.0622 29.7694 31.4222 29.2146 31.7646 28.6125C32.1069 28.0104 32.3844 27.3316 32.5969 26.576C32.8094 25.8205 32.9215 24.9174 32.9333 23.8667ZM25 11.4C24.6931 11.4 24.4274 11.2878 24.2031 11.0635C23.9788 10.8392 23.8667 10.5736 23.8667 10.2667V8C23.8667 7.69305 23.9788 7.42743 24.2031 7.20312C24.4274 6.97882 24.6931 6.86666 25 6.86666C25.3069 6.86666 25.5726 6.97882 25.7969 7.20312C26.0212 7.42743 26.1333 7.69305 26.1333 8V10.2667C26.1333 10.5736 26.0212 10.8392 25.7969 11.0635C25.5726 11.2878 25.3069 11.4 25 11.4ZM11.4 23.3H9.13333C8.82639 23.3 8.56076 23.1878 8.33646 22.9635C8.11215 22.7392 8 22.4736 8 22.1667C8 21.8597 8.11215 21.5941 8.33646 21.3698C8.56076 21.1455 8.82639 21.0333 9.13333 21.0333H11.4C11.7069 21.0333 11.9726 21.1455 12.1969 21.3698C12.4212 21.5941 12.5333 21.8597 12.5333 22.1667C12.5333 22.4736 12.4212 22.7392 12.1969 22.9635C11.9726 23.1878 11.7069 23.3 11.4 23.3ZM12.3385 27.9219C12.6455 27.9219 12.9111 28.034 13.1354 28.2583C13.3597 28.4826 13.4719 28.7542 13.4719 29.0729C13.4719 29.309 13.4069 29.5156 13.2771 29.6927C13.1472 29.8698 12.9701 30.0115 12.7458 30.1177C12.616 30.1767 12.4389 30.2535 12.2146 30.3479C11.9903 30.4424 11.7483 30.5427 11.4885 30.649C11.2288 30.7552 10.9927 30.8438 10.7802 30.9146C10.5677 30.9854 10.3788 31.0267 10.2135 31.0385C9.9066 31.0385 9.64097 30.9264 9.41667 30.7021C9.19236 30.4778 9.08021 30.2063 9.08021 29.8875C9.08021 29.6514 9.14514 29.4448 9.275 29.2677C9.40486 29.0906 9.58194 28.949 9.80625 28.8427C9.93611 28.7955 10.1132 28.7188 10.3375 28.6125C10.5618 28.5063 10.8038 28.4059 11.0635 28.3115C11.3233 28.217 11.5594 28.1285 11.7719 28.0458C11.9844 27.9632 12.1733 27.9219 12.3385 27.9219ZM15.0302 16.5C15.0302 16.8069 14.9181 17.0726 14.6937 17.2969C14.4694 17.5212 14.2038 17.6333 13.8969 17.6333C13.6844 17.6333 13.4896 17.5802 13.3125 17.474L11.3823 16.2875C11.217 16.1812 11.0872 16.0455 10.9927 15.8802C10.8983 15.7149 10.8451 15.526 10.8333 15.3135C10.8333 15.0066 10.9455 14.741 11.1698 14.5167C11.3941 14.2924 11.6597 14.1802 11.9667 14.1802C12.1556 14.1802 12.3503 14.2392 12.551 14.3573L14.499 15.526C14.6642 15.6205 14.7941 15.7562 14.8885 15.9333C14.983 16.1104 15.0302 16.2993 15.0302 16.5ZM16.5 9.98333C16.5 9.67639 16.6122 9.41076 16.8365 9.18646C17.0608 8.96215 17.3264 8.85 17.6333 8.85C17.834 8.85 18.0229 8.90312 18.2 9.00937C18.3771 9.11562 18.5187 9.25729 18.625 9.43437L19.7229 11.4177C19.8174 11.583 19.8646 11.7601 19.8646 11.949C19.8646 12.2677 19.7524 12.5392 19.5281 12.7635C19.3038 12.9878 19.0382 13.1 18.7312 13.1C18.5306 13.1 18.3417 13.0469 18.1646 12.9406C17.9875 12.8344 17.8458 12.6927 17.7396 12.5156L16.6417 10.5323C16.5472 10.367 16.5 10.184 16.5 9.98333ZM40.8667 21.0333C41.1736 21.0333 41.4392 21.1455 41.6635 21.3698C41.8878 21.5941 42 21.8597 42 22.1667C42 22.4736 41.8878 22.7392 41.6635 22.9635C41.4392 23.1878 41.1736 23.3 40.8667 23.3H38.6C38.2931 23.3 38.0274 23.1878 37.8031 22.9635C37.5788 22.7392 37.4667 22.4736 37.4667 22.1667C37.4667 21.8597 37.5788 21.5941 37.8031 21.3698C38.0274 21.1455 38.2931 21.0333 38.6 21.0333H40.8667ZM40.9021 29.9052C40.9021 30.2122 40.7899 30.4778 40.5656 30.7021C40.3413 30.9264 40.0757 31.0385 39.7687 31.0385C39.6389 31.0385 39.4618 31.0031 39.2375 30.9323C39.0132 30.8615 38.7712 30.767 38.5115 30.649C38.2517 30.5309 38.0156 30.4306 37.8031 30.3479C37.5906 30.2653 37.4076 30.1826 37.2542 30.1C37.0417 30.0056 36.8705 29.8639 36.7406 29.675C36.6108 29.4861 36.5399 29.2736 36.5281 29.0375C36.5281 28.7188 36.6403 28.4531 36.8646 28.2406C37.0889 28.0281 37.3604 27.916 37.6792 27.9042C37.8208 27.9042 38.0038 27.9455 38.2281 28.0281C38.4524 28.1108 38.6885 28.2052 38.9365 28.3115C39.1844 28.4177 39.4205 28.524 39.6448 28.6302C39.8691 28.7365 40.0521 28.8132 40.1937 28.8604C40.4062 28.9549 40.5774 29.0906 40.7073 29.2677C40.8372 29.4448 40.9021 29.6573 40.9021 29.9052ZM36.1031 17.6333C35.7962 17.6333 35.5306 17.5212 35.3062 17.2969C35.0819 17.0726 34.9698 16.8069 34.9698 16.5C34.9698 16.2993 35.017 16.1104 35.1115 15.9333C35.2059 15.7562 35.3358 15.6205 35.501 15.526L37.449 14.3573C37.6497 14.2392 37.8444 14.1802 38.0333 14.1802C38.3403 14.1802 38.6059 14.2924 38.8302 14.5167C39.0545 14.741 39.1667 15.0066 39.1667 15.3135C39.1667 15.5142 39.1194 15.6972 39.025 15.8625C38.9306 16.0278 38.7948 16.1694 38.6177 16.2875L36.6875 17.474C36.5104 17.5802 36.3156 17.6333 36.1031 17.6333ZM30.1354 11.949C30.1354 11.7601 30.1826 11.583 30.2771 11.4177L31.375 9.43437C31.4694 9.25729 31.6052 9.11562 31.7823 9.00937C31.9594 8.90312 32.1542 8.85 32.3667 8.85C32.6736 8.85 32.9392 8.96215 33.1635 9.18646C33.3878 9.41076 33.5 9.67639 33.5 9.98333C33.5 10.184 33.4528 10.367 33.3583 10.5323L32.2604 12.5156C32.166 12.6927 32.0302 12.8344 31.8531 12.9406C31.676 13.0469 31.4812 13.1 31.2687 13.1C30.9618 13.1 30.6962 12.9878 30.4719 12.7635C30.2476 12.5392 30.1354 12.2677 30.1354 11.949Z" fill="#083276"/>
</g>
</svg>
