<svg preserveAspectRatio="none" width="100%" height="100%" overflow="visible" style="display: block;" viewBox="0 0 40 40" fill="none" xmlns="http://www.w3.org/2000/svg">
<g id="Frame 123">
<path id="Vector" d="M13.4379 10.5025L12.4321 11.5068L13.9286 13.0025L14.9329 11.9982L13.4379 10.5025ZM26.5629 10.5025L25.0664 11.9982L26.0714 13.0025L27.5671 11.5075L26.5629 10.5025ZM20 10.9482C19.7643 10.9501 19.5262 10.9654 19.2857 10.9939H19.2643C16.3671 11.3261 14.0614 13.6668 13.6607 16.5511C13.3407 18.8725 14.2979 20.9775 15.8929 22.3332C16.5452 22.8901 16.9865 23.6542 17.1429 24.4975V28.7832H18.7714C19.02 29.2096 19.4736 29.4975 20 29.4975C20.5264 29.4975 20.98 29.2096 21.2286 28.7832H22.8571V25.9261H22.9243V25.0775C22.9243 24.0304 23.4686 22.9746 24.3529 22.1539C25.5357 20.9696 26.4286 19.2875 26.4286 17.3554C26.4286 13.8268 23.5243 10.9154 20 10.9482ZM20 12.3768C22.7607 12.3382 25 14.5982 25 17.3554C25 18.8511 24.3071 20.1682 23.3479 21.1268L23.3707 21.1496C22.4178 22.029 21.8014 23.2132 21.6279 24.4982H18.5036C18.3464 23.2739 17.8214 22.0889 16.8293 21.2389C15.5671 20.1675 14.815 18.5532 15.0664 16.7304C15.3786 14.4804 17.2043 12.6711 19.4414 12.4232C19.6261 12.3976 19.8122 12.3823 19.9986 12.3775L20 12.3768ZM10 17.3554V18.7839H12.1429V17.3554H10ZM27.8571 17.3554V18.7839H30V17.3554H27.8571ZM13.9286 23.1368L12.4329 24.6318L13.4379 25.6368L14.9321 24.1411L13.9286 23.1368ZM26.0714 23.1368L25.0671 24.1411L26.5621 25.6368L27.5671 24.6318L26.0714 23.1368ZM18.5714 25.9268H21.4286V27.3554H18.5714V25.9268Z" fill="black"/>
</g>
</svg>
